<svg width="2508" height="614" viewBox="0 0 2508 614" fill="none" xmlns="http://www.w3.org/2000/svg">
<path d="M613.687 376.188C579.021 376.188 548.854 370.188 523.188 358.188C497.854 345.854 485.188 324.354 485.188 293.688C485.188 282.687 488.521 272.021 495.188 261.688C501.854 251.354 511.688 243.021 524.688 236.688C537.688 230.021 553.521 226.688 572.188 226.688C586.521 226.688 598.687 227.354 608.687 228.688C618.687 230.021 630.187 233.688 643.187 239.688C656.187 245.688 669.687 255.188 683.687 268.188C678.354 245.188 670.354 225.021 659.687 207.688C649.021 190.354 637.021 177.021 623.687 167.688C610.687 158.021 597.854 153.188 585.188 153.188C579.188 153.188 573.521 154.354 568.188 156.688C563.188 158.688 557.021 161.687 549.688 165.687C541.354 171.021 535.188 173.687 531.188 173.687C529.521 173.687 528.021 173.188 526.688 172.188C525.688 170.854 525.188 169.354 525.188 167.688C525.188 154.354 531.021 144.021 542.688 136.688C554.688 129.354 569.188 126.021 586.188 126.688C609.521 128.021 630.854 138.021 650.187 156.688C669.521 175.021 684.687 197.854 695.687 225.188C707.021 252.521 712.687 279.354 712.687 305.688C712.687 310.021 712.354 316.187 711.687 324.188L695.687 323.188C683.021 297.521 666.687 279.354 646.687 268.688C627.021 257.688 607.188 252.188 587.188 252.188C561.521 252.188 543.188 256.021 532.188 263.688C521.188 271.354 515.688 282.521 515.688 297.188C515.688 312.521 523.354 324.854 538.688 334.188C554.021 343.521 573.687 348.188 597.688 348.188C611.021 348.188 621.687 347.521 629.687 346.188C637.687 344.521 646.021 342.354 654.687 339.688C661.687 337.354 667.854 335.687 673.187 334.688C678.521 333.688 685.354 333.188 693.687 333.188C703.021 333.188 708.854 333.854 711.187 335.188C713.854 336.521 715.187 339.521 715.187 344.188C715.187 347.521 708.354 351.688 694.687 356.688C681.021 361.688 665.687 366.188 648.687 370.188C631.687 374.188 620.021 376.188 613.687 376.188Z" fill="#D2AA76"/>
<path d="M788.707 376.688C781.04 376.688 774.874 365.521 770.207 343.188C765.54 320.521 762.54 301.021 761.207 284.688C759.874 268.354 758.04 242.521 755.707 207.188C755.374 201.521 755.207 194.188 755.207 185.188C755.207 173.854 756.04 166.021 757.707 161.688C759.707 157.354 762.874 155.187 767.207 155.187C770.874 155.187 773.707 156.021 775.707 157.688C778.04 159.021 780.04 161.354 781.707 164.688L781.207 184.688C781.207 206.021 782.207 226.188 784.207 245.188C786.54 264.188 790.04 289.687 794.707 321.688C797.374 335.688 799.207 347.188 800.207 356.188C800.874 360.854 800.04 365.521 797.707 370.188C795.374 374.521 792.374 376.688 788.707 376.688ZM776.207 101.688C768.874 101.688 763.374 98.8542 759.707 93.1875C756.374 87.5208 754.707 80.5208 754.707 72.1875C754.707 68.5208 754.874 65.8542 755.207 64.1875C754.874 58.8542 757.874 56.1875 764.207 56.1875C768.874 56.1875 773.54 57.3542 778.207 59.6875C783.207 61.6875 784.707 63.1875 782.707 64.1875C786.04 72.8542 787.707 79.6875 787.707 84.6875C787.707 89.0208 786.707 92.5208 784.707 95.1875C782.707 97.5208 779.874 99.6875 776.207 101.688Z" fill="#D2AA76"/>
<path d="M872.551 372.688C865.217 336.354 859.551 293.354 855.551 243.688C851.884 193.688 850.051 145.354 850.051 98.6875C850.051 75.3542 850.551 54.6875 851.551 36.6875C851.551 32.3542 854.884 30.1875 861.551 30.1875C866.884 30.1875 870.217 31.5208 871.551 34.1875C873.217 36.8542 874.051 41.0208 874.051 46.6875C874.051 100.688 875.051 146.854 877.051 185.188C879.051 223.188 881.717 264.188 885.051 308.188C887.051 336.521 888.384 355.688 889.051 365.688C889.384 371.021 886.551 373.688 880.551 373.688C878.551 373.688 875.884 373.354 872.551 372.688Z" fill="#D2AA76"/>
<path d="M1066.04 612.688C1043.37 612.688 1023.04 607.854 1005.04 598.188C987.368 588.521 973.202 577.354 962.535 564.688C951.868 552.021 945.868 541.687 944.535 533.688C943.202 526.354 944.868 520.687 949.535 516.688C954.535 512.688 960.702 511.021 968.035 511.688C978.368 536.354 990.702 555.354 1005.04 568.688C1019.37 582.021 1039.87 589.021 1066.54 589.688C1085.2 590.021 1100.04 578.021 1111.04 553.688C1122.37 529.688 1130.37 500.188 1135.04 465.188C1139.7 430.521 1142.04 396.354 1142.04 362.688C1142.04 345.354 1141.54 331.188 1140.54 320.188C1115.2 351.188 1082.87 366.688 1043.54 366.688C1009.54 366.688 983.368 350.521 965.035 318.188C947.035 285.854 935.368 249.354 930.035 208.688C929.368 204.688 929.035 199.021 929.035 191.688C929.035 170.688 935.868 160.188 949.535 160.188C950.868 160.188 952.702 168.521 955.035 185.188C958.702 211.521 963.202 235.188 968.535 256.188C973.868 277.188 982.702 296.354 995.035 313.688C1007.7 330.688 1024.37 339.188 1045.04 339.188C1061.37 339.188 1078.04 333.854 1095.04 323.188C1112.37 312.187 1124.87 300.021 1132.54 286.688C1132.54 261.354 1129.2 238.688 1122.54 218.688C1116.2 198.354 1112.87 187.521 1112.54 186.188C1111.87 178.854 1111.54 174.188 1111.54 172.188C1111.54 165.521 1112.54 160.688 1114.54 157.688C1116.87 154.688 1120.2 153.188 1124.54 153.188C1129.2 153.188 1134.54 162.688 1140.54 181.688C1146.54 200.688 1151.87 225.521 1156.54 256.188C1161.2 286.854 1164.37 318.854 1166.04 352.188C1166.7 369.521 1167.04 382.354 1167.04 390.688C1167.04 454.688 1159.04 507.688 1143.04 549.688C1127.37 591.688 1101.7 612.688 1066.04 612.688Z" fill="#D2AA76"/>
<path d="M378.742 130.557C389.55 124.914 400.302 121.861 410.998 121.397C421.563 121.001 431.169 123.213 439.817 128.033C448.465 132.854 455.291 140.056 460.294 149.64C463.692 156.148 465.379 162.871 465.355 169.809C465.332 176.748 463.419 183.242 459.617 189.292C455.877 195.46 450.296 200.482 442.873 204.357C428.808 211.7 415.163 216.037 401.939 217.37C388.646 218.889 376.839 217.224 366.518 212.373C356.067 207.591 348.092 199.934 342.595 189.404C338.95 182.423 338.758 175.07 342.017 167.346C345.146 159.69 350.226 152.596 357.256 146.065C364.157 139.602 371.319 134.432 378.742 130.557Z" fill="#D2AA76"/>
<path d="M294.63 64.6479C300.849 54.9529 308.031 47.2767 316.175 41.6192C324.244 36.0785 332.581 33.018 341.186 32.4376C349.791 31.8573 357.903 34.0112 365.523 38.8993C370.697 42.2184 374.624 46.5509 377.302 51.8966C379.981 57.2423 381.017 63.1829 380.41 69.7181C379.897 76.3138 377.505 82.9406 373.234 89.5987C365.141 102.214 356.208 112.311 346.433 119.89C336.677 127.646 326.84 132.217 316.921 133.604C306.927 135.107 297.744 133.173 289.372 127.802C283.821 124.241 280.813 118.685 280.347 111.131C279.806 103.694 281.002 95.7235 283.936 87.218C286.794 78.8293 290.359 71.306 294.63 64.6479Z" fill="#D2AA76"/>
<path d="M245.975 65.174C247.851 74.2221 247.82 82.6989 245.883 90.6047C243.923 98.4014 240.235 104.965 234.819 110.294C229.402 115.624 222.61 119.136 214.441 120.83C208.894 121.98 203.553 121.836 198.417 120.4C193.28 118.963 188.876 116.238 185.204 112.224C181.431 108.231 178.9 103.128 177.612 96.9141C175.171 85.1408 174.867 74.2888 176.7 64.3581C178.409 54.3393 182.162 46.0573 187.957 39.5119C193.73 32.8575 201.104 28.5998 210.08 26.7389C216.03 25.5053 221.519 26.8685 226.547 30.8287C231.553 34.6799 235.726 39.8407 239.066 46.3113C242.384 52.6727 244.686 58.9603 245.975 65.174Z" fill="#D2AA76"/>
<path d="M393.634 245.395C402.926 247.085 410.946 250.367 417.693 255.243C424.328 260.099 429.132 266.125 432.103 273.32C435.075 280.515 435.795 288.321 434.266 296.738C433.227 302.453 431.041 307.477 427.709 311.809C424.377 316.141 420.105 319.282 414.893 321.233C409.662 323.288 403.855 323.735 397.474 322.575C385.382 320.377 374.983 316.501 366.278 310.947C357.441 305.476 351.034 298.73 347.056 290.708C342.967 282.665 341.762 274.02 343.443 264.772C344.558 258.641 347.956 253.945 353.637 250.684C359.207 247.403 365.698 245.416 373.111 244.724C380.411 244.012 387.252 244.235 393.634 245.395Z" fill="#D2AA76"/>
<path d="M2424.53 73.7054C2432.65 67.5827 2440.91 63.3702 2449.3 61.0679C2457.6 58.8393 2465.32 58.7002 2472.47 60.6505C2479.62 62.6009 2485.5 66.633 2490.1 72.7468C2493.23 76.8982 2495.03 81.5214 2495.49 86.6163C2495.96 91.7113 2494.9 96.8269 2492.33 101.963C2489.81 107.175 2485.76 111.883 2480.18 116.088C2469.61 124.055 2459.16 129.74 2448.84 133.144C2438.47 136.697 2429.05 137.64 2420.59 135.975C2412.02 134.383 2405.2 130.228 2400.14 123.51C2396.78 119.057 2396.12 113.698 2398.15 107.433C2400.08 101.242 2403.59 95.1056 2408.68 89.0241C2413.67 83.0164 2418.95 77.9102 2424.53 73.7054Z" fill="white"/>
<path d="M2339.79 47.0199C2341.96 37.986 2345.4 30.2356 2350.11 23.7689C2354.79 17.411 2360.33 12.8721 2366.74 10.1523C2373.14 7.43242 2379.89 6.92646 2386.99 8.63442C2391.82 9.79414 2395.95 12.0563 2399.41 15.4207C2402.87 18.7852 2405.23 23.0378 2406.5 28.1786C2407.85 33.3404 2407.78 39.0233 2406.29 45.2274C2403.46 56.9824 2399.33 67.0412 2393.88 75.4039C2388.5 83.8964 2382.22 89.9836 2375.03 93.6654C2367.81 97.456 2360.3 98.413 2352.5 96.5364C2347.32 95.2923 2343.56 91.854 2341.21 86.2215C2338.83 80.6978 2337.63 74.3071 2337.61 67.0493C2337.57 59.9004 2338.29 53.224 2339.79 47.0199Z" fill="white"/>
<path d="M2308.88 62.8716C2311.33 70.4494 2312.09 77.7149 2311.17 84.6681C2310.21 91.5299 2307.66 97.4955 2303.52 102.565C2299.37 107.634 2293.88 111.273 2287.04 113.483C2282.39 114.983 2277.8 115.356 2273.27 114.603C2268.73 113.849 2264.71 111.923 2261.19 108.825C2257.58 105.754 2254.94 101.617 2253.26 96.4126C2250.08 86.5523 2248.81 77.283 2249.46 68.6046C2249.99 59.8622 2252.44 52.4181 2256.79 46.2721C2261.12 40.0349 2267.05 35.7024 2274.56 33.2747C2279.55 31.6653 2284.38 32.3237 2289.05 35.2497C2293.7 38.0845 2297.75 42.1186 2301.21 47.3522C2304.65 52.4944 2307.2 57.6676 2308.88 62.8716Z" fill="white"/>
<path d="M2455.37 157.423C2463.08 157.245 2470.04 158.551 2476.24 161.342C2482.35 164.135 2487.18 168.165 2490.75 173.433C2494.31 178.701 2496.17 184.828 2496.33 191.814C2496.44 196.558 2495.52 200.937 2493.57 204.952C2491.61 208.966 2488.71 212.183 2484.86 214.602C2481.02 217.107 2476.44 218.421 2471.15 218.543C2461.11 218.775 2452.15 217.385 2444.27 214.374C2436.3 211.452 2430.06 207.109 2425.56 201.345C2420.97 195.583 2418.58 188.864 2418.4 181.188C2418.28 176.099 2420.23 171.783 2424.24 168.238C2428.16 164.696 2433.02 162.038 2438.84 160.264C2444.56 158.492 2450.07 157.545 2455.37 157.423Z" fill="white"/>
<path d="M169.166 364.364C167.971 361.35 167.326 358.989 167.23 357.283C167.285 355.226 168.568 353.701 171.077 352.706C173.336 351.81 176.044 351.318 179.203 351.228C182.612 351.039 185.946 351.025 189.204 351.187C197.425 351.415 204.595 351.189 210.713 350.507C217.082 349.726 224.532 347.644 233.064 344.261C264.179 331.925 284.577 315.262 294.259 294.273C304.191 273.185 304.427 250.71 294.966 226.847C286.5 205.495 273.058 189.169 254.639 177.869C236.121 166.317 215.735 159.575 193.482 157.643C171.479 155.612 150.593 157.498 130.826 163.301L215.472 314.175C217.165 318.445 217.932 322.21 217.773 325.471C217.865 328.632 215.904 331.008 211.889 332.6C211.084 333.501 206.513 327.465 198.176 314.492C189.838 301.52 177.858 282.289 162.235 256.8C144.066 227.087 130.438 205.167 121.352 191.038C112.166 176.658 106.246 168.686 103.593 167.122C82.7664 175.379 66.1513 183.275 53.7484 190.809C41.246 198.091 32.0295 204.507 26.099 210.056C20.1685 215.605 17.8306 218.13 19.0852 217.633C17.6314 217.628 16.4544 217.223 15.5541 216.417C14.5543 215.36 13.4808 213.751 12.3335 211.59C10.9353 209.528 9.91153 208.044 9.26222 207.139C6.87197 201.11 10.3747 194.199 19.7703 186.404C29.1659 178.609 39.5116 171.746 50.8073 165.814C62.3539 159.782 70.1347 155.971 74.1495 154.379C100.999 143.734 131.169 138.167 164.659 137.678C198.049 136.938 228.839 143.189 257.028 156.429C285.217 169.669 305.038 190.733 316.492 219.62C325.057 241.222 326.982 261.824 322.267 281.424C317.453 300.774 307.807 317.824 293.329 332.575C279.103 347.227 262.078 358.483 242.254 366.343C226.195 372.71 210.77 375.919 195.981 375.969C181.192 376.019 172.253 372.151 169.166 364.364Z" fill="#D2AA76"/>
<path d="M1195 342.188C1188.67 316.854 1183.83 291.354 1180.5 265.688C1177.17 239.688 1174.17 197.021 1171.5 137.687C1171.5 133.687 1172.83 130.188 1175.5 127.188C1178.5 124.187 1181.83 122.688 1185.5 122.688H1190C1191.67 133.688 1192.83 151.354 1193.5 175.688C1193.5 178.354 1193.83 187.354 1194.5 202.688C1195.17 217.688 1196.83 231.854 1199.5 245.188C1238.17 241.521 1269 234.021 1292 222.688C1315.33 211.354 1327 195.188 1327 174.188C1327 147.854 1315.33 126.354 1292 109.688C1268.67 93.0208 1233.5 84.6875 1186.5 84.6875C1166.83 84.6875 1150.17 88.3542 1136.5 95.6875C1134.17 96.6875 1132.5 98.8542 1131.5 102.188C1130.5 105.188 1129.67 109.521 1129 115.188C1128.33 121.188 1127.5 125.688 1126.5 128.688C1125.5 131.688 1123.67 133.187 1121 133.187C1118 133.187 1116 131.021 1115 126.688C1114.33 122.021 1114 111.521 1114 95.1875C1114 85.8542 1120.33 78.5208 1133 73.1875C1145.67 67.8542 1162 65.1875 1182 65.1875C1240.33 65.1875 1283.67 74.3542 1312 92.6875C1340.33 111.021 1354.5 139.188 1354.5 177.188C1354.5 197.521 1346.33 214.521 1330 228.188C1313.67 241.854 1293.83 252.021 1270.5 258.688C1247.17 265.021 1224.83 268.188 1203.5 268.188C1204.17 272.188 1204.83 275.854 1205.5 279.188C1206.17 282.521 1206.67 285.354 1207 287.688C1211.67 310.354 1214 327.854 1214 340.188C1214 347.521 1213 353.354 1211 357.688C1209.33 362.021 1205.5 363.521 1199.5 362.188L1195 342.188Z" fill="white"/>
<path d="M1511.78 362.188C1477.11 362.188 1446.94 356.188 1421.28 344.188C1395.94 331.854 1383.28 310.354 1383.28 279.688C1383.28 268.688 1386.61 258.021 1393.28 247.688C1399.94 237.354 1409.78 229.021 1422.78 222.688C1435.78 216.021 1451.61 212.688 1470.28 212.688C1484.61 212.688 1496.78 213.354 1506.78 214.688C1516.78 216.021 1528.28 219.688 1541.28 225.688C1554.28 231.688 1567.78 241.188 1581.78 254.188C1576.44 231.188 1568.44 211.021 1557.78 193.688C1547.11 176.354 1535.11 163.021 1521.78 153.688C1508.78 144.021 1495.94 139.188 1483.28 139.188C1477.28 139.188 1471.61 140.354 1466.28 142.688C1461.28 144.688 1455.11 147.687 1447.78 151.687C1439.44 157.021 1433.28 159.687 1429.28 159.687C1427.61 159.687 1426.11 159.188 1424.78 158.188C1423.78 156.854 1423.28 155.354 1423.28 153.688C1423.28 140.354 1429.11 130.021 1440.78 122.688C1452.78 115.354 1467.28 112.021 1484.28 112.688C1507.61 114.021 1528.94 124.021 1548.28 142.688C1567.61 161.021 1582.78 183.854 1593.78 211.188C1605.11 238.521 1610.78 265.354 1610.78 291.688C1610.78 296.021 1610.44 302.188 1609.78 310.188L1593.78 309.188C1581.11 283.521 1564.78 265.354 1544.78 254.688C1525.11 243.688 1505.28 238.188 1485.28 238.188C1459.61 238.188 1441.28 242.021 1430.28 249.688C1419.28 257.354 1413.78 268.521 1413.78 283.188C1413.78 298.521 1421.44 310.854 1436.78 320.188C1452.11 329.521 1471.78 334.188 1495.78 334.188C1509.11 334.188 1519.78 333.521 1527.78 332.188C1535.78 330.521 1544.11 328.354 1552.78 325.688C1559.78 323.354 1565.94 321.688 1571.28 320.688C1576.61 319.688 1583.44 319.188 1591.78 319.188C1601.11 319.188 1606.94 319.854 1609.28 321.188C1611.94 322.521 1613.28 325.521 1613.28 330.188C1613.28 333.521 1606.44 337.688 1592.78 342.688C1579.11 347.688 1563.78 352.188 1546.78 356.188C1529.78 360.188 1518.11 362.188 1511.78 362.188Z" fill="white"/>
<path d="M1875.3 359.688C1856.63 359.688 1841.46 356.188 1829.8 349.188C1818.46 341.854 1810.46 330.521 1805.8 315.188C1795.8 332.521 1784.3 345.521 1771.3 354.188C1758.3 362.521 1744.3 366.688 1729.3 366.688C1703.3 366.688 1683.3 357.354 1669.3 338.688C1655.3 320.021 1648.3 289.854 1648.3 248.188C1648.3 228.521 1650.3 211.854 1654.3 198.188C1658.63 184.521 1665.8 172.021 1675.8 160.688C1680.46 162.354 1683.3 164.688 1684.3 167.688C1685.63 170.354 1686.3 174.354 1686.3 179.688C1686.3 185.021 1685.63 190.354 1684.3 195.688C1683.3 201.021 1682.63 204.188 1682.3 205.188C1679.96 215.188 1678.13 224.021 1676.8 231.688C1675.8 239.021 1675.3 248.188 1675.3 259.188C1675.3 283.188 1679.8 302.854 1688.8 318.188C1698.13 333.188 1711.46 340.688 1728.8 340.688C1748.46 340.688 1763.8 334.354 1774.8 321.688C1786.13 308.687 1791.8 292.521 1791.8 273.188L1788.3 222.188C1788.3 220.188 1789.63 218.188 1792.3 216.188C1795.3 214.188 1798.63 213.188 1802.3 213.188C1806.96 213.188 1810.13 216.354 1811.8 222.688C1813.46 229.021 1814.96 239.021 1816.3 252.688C1818.3 269.688 1820.46 283.688 1822.8 294.688C1825.46 305.354 1830.46 314.854 1837.8 323.188C1845.13 331.188 1855.8 335.188 1869.8 335.188C1886.8 335.188 1899.13 330.521 1906.8 321.188C1914.46 311.521 1918.3 299.021 1918.3 283.688C1918.3 270.021 1915.63 255.688 1910.3 240.688C1905.3 225.354 1899.13 212.854 1891.8 203.188C1891.46 200.188 1892.96 197.688 1896.3 195.688C1899.96 193.688 1903.63 193.188 1907.3 194.188C1913.3 195.521 1918.8 200.854 1923.8 210.188C1929.13 219.521 1933.3 231.188 1936.3 245.188C1939.63 259.188 1941.3 273.188 1941.3 287.188C1941.3 308.188 1935.96 325.521 1925.3 339.188C1914.96 352.854 1898.3 359.688 1875.3 359.688Z" fill="white"/>
<path d="M1983.92 303.188C1988.59 299.521 1993.09 297.688 1997.42 297.688C2001.42 297.688 2005.26 298.854 2008.92 301.188C2012.92 303.521 2016.92 306.521 2020.92 310.188C2024.92 313.521 2028.09 316.021 2030.42 317.688C2038.09 323.688 2048.59 328.354 2061.92 331.688C2075.26 335.021 2089.42 336.688 2104.42 336.688C2121.42 336.688 2136.59 333.521 2149.92 327.188C2163.59 320.521 2170.42 311.688 2170.42 300.688C2170.42 290.688 2166.76 282.854 2159.42 277.188C2152.09 271.188 2143.26 266.854 2132.92 264.188C2122.59 261.521 2108.92 259.021 2091.92 256.688C2068.92 254.021 2050.59 250.688 2036.92 246.688C2023.59 242.688 2012.92 236.188 2004.92 227.188C1996.92 217.854 1992.92 204.854 1992.92 188.188C1992.92 170.188 2001.42 156.854 2018.42 148.187C2035.42 139.187 2054.92 134.688 2076.92 134.688C2096.92 134.688 2113.92 139.021 2127.92 147.688C2142.26 156.021 2149.59 168.021 2149.92 183.688C2150.59 192.688 2149.26 199.854 2145.92 205.188C2142.59 210.188 2138.59 212.688 2133.92 212.688C2131.26 212.688 2128.92 211.688 2126.92 209.688C2125.26 207.688 2124.42 205.021 2124.42 201.688C2124.42 196.354 2126.26 190.521 2129.92 184.188C2128.26 176.188 2122.76 170.188 2113.42 166.188C2104.42 162.188 2093.59 160.188 2080.92 160.188C2062.26 160.188 2047.42 163.688 2036.42 170.688C2025.42 177.354 2019.92 185.354 2019.92 194.688C2019.92 204.688 2023.92 212.354 2031.92 217.688C2039.92 223.021 2049.59 226.854 2060.92 229.188C2072.59 231.188 2089.09 233.188 2110.42 235.188C2128.09 237.521 2142.42 240.354 2153.42 243.688C2164.76 247.021 2174.26 253.521 2181.92 263.188C2189.59 272.521 2193.42 286.021 2193.42 303.688C2193.42 322.021 2184.92 336.521 2167.92 347.188C2150.92 357.521 2130.59 362.688 2106.92 362.688C2076.59 362.688 2049.42 357.521 2025.42 347.188C2001.76 336.854 1987.92 322.188 1983.92 303.188Z" fill="white"/>
<path d="M2315.69 357.701C2294.85 353.14 2276.53 344.865 2260.73 332.876C2244.93 320.886 2233.45 306.262 2226.31 289.003C2219.17 271.744 2217.74 253.345 2222.01 233.808C2226.79 211.991 2235.31 192.53 2247.59 175.425C2259.93 157.995 2275.17 145.292 2293.29 137.316C2311.81 129.086 2331.66 127.287 2352.82 131.919C2374.97 136.766 2390.17 147.6 2398.43 164.422C2406.76 180.918 2408.25 199.84 2402.89 221.189C2398.69 240.401 2387.83 253.379 2370.32 260.124C2353.13 266.94 2332.81 267.783 2309.37 262.651C2305.79 261.867 2300.48 260.366 2293.46 258.146C2282.02 254.278 2274.11 250.67 2269.73 247.322C2265.34 243.973 2263.9 238.88 2265.39 232.042C2265.89 229.762 2266.9 228.277 2268.42 227.585C2270.01 226.568 2272.75 226.486 2276.66 227.342C2280.89 228.268 2288.17 230.884 2298.49 235.19C2308.48 239.424 2317.55 242.432 2325.69 244.214C2355.64 250.771 2373.47 241.024 2379.17 214.974C2382.6 199.344 2382.37 186.329 2378.51 175.929C2374.97 165.599 2366.03 158.867 2351.71 155.731C2336.08 152.31 2321.15 153.479 2306.92 159.237C2292.77 164.669 2280.81 173.312 2271.05 185.166C2261.61 197.092 2255.26 210.544 2251.98 225.523C2246.35 251.247 2248.88 273.98 2259.57 293.723C2270.34 313.14 2290.7 326.127 2320.65 332.684C2324.24 333.468 2330.33 334.461 2338.94 335.662C2342.59 336.121 2347.2 336.106 2352.77 335.618C2358.34 335.13 2362.33 334.81 2364.75 334.658C2379.82 332.838 2390.61 332.641 2397.13 334.066C2402.01 335.135 2405.47 337.257 2407.51 340.433C2396.66 351.025 2382.45 357.47 2364.89 359.767C2347.72 361.811 2331.32 361.122 2315.69 357.701Z" fill="white"/>
</svg>
