<svg width="2508" height="614" viewBox="0 0 2508 614" fill="none" xmlns="http://www.w3.org/2000/svg">
<path d="M613.687 377C579.021 377 548.854 371 523.188 359C497.854 346.667 485.188 325.167 485.188 294.5C485.188 283.5 488.521 272.833 495.188 262.5C501.854 252.167 511.688 243.833 524.688 237.5C537.688 230.833 553.521 227.5 572.188 227.5C586.521 227.5 598.687 228.167 608.687 229.5C618.687 230.833 630.187 234.5 643.187 240.5C656.187 246.5 669.687 256 683.687 269C678.354 246 670.354 225.833 659.687 208.5C649.021 191.167 637.021 177.833 623.687 168.5C610.687 158.833 597.854 154 585.188 154C579.188 154 573.521 155.167 568.188 157.5C563.188 159.5 557.021 162.5 549.688 166.5C541.354 171.833 535.188 174.5 531.188 174.5C529.521 174.5 528.021 174 526.688 173C525.688 171.667 525.188 170.167 525.188 168.5C525.188 155.167 531.021 144.833 542.688 137.5C554.688 130.167 569.188 126.833 586.188 127.5C609.521 128.833 630.854 138.833 650.187 157.5C669.521 175.833 684.687 198.667 695.687 226C707.021 253.333 712.687 280.167 712.687 306.5C712.687 310.833 712.354 317 711.687 325L695.687 324C683.021 298.333 666.687 280.167 646.687 269.5C627.021 258.5 607.188 253 587.188 253C561.521 253 543.188 256.833 532.188 264.5C521.188 272.167 515.688 283.333 515.688 298C515.688 313.333 523.354 325.667 538.688 335C554.021 344.333 573.687 349 597.688 349C611.021 349 621.687 348.333 629.687 347C637.687 345.333 646.021 343.167 654.687 340.5C661.687 338.167 667.854 336.5 673.187 335.5C678.521 334.5 685.354 334 693.687 334C703.021 334 708.854 334.667 711.187 336C713.854 337.333 715.187 340.333 715.187 345C715.187 348.333 708.354 352.5 694.687 357.5C681.021 362.5 665.687 367 648.687 371C631.687 375 620.021 377 613.687 377Z" fill="#D2AA76"/>
<path d="M788.707 377.5C781.04 377.5 774.874 366.333 770.207 344C765.54 321.333 762.54 301.833 761.207 285.5C759.874 269.167 758.04 243.333 755.707 208C755.374 202.333 755.207 195 755.207 186C755.207 174.667 756.04 166.833 757.707 162.5C759.707 158.167 762.874 156 767.207 156C770.874 156 773.707 156.833 775.707 158.5C778.04 159.833 780.04 162.167 781.707 165.5L781.207 185.5C781.207 206.833 782.207 227 784.207 246C786.54 265 790.04 290.5 794.707 322.5C797.374 336.5 799.207 348 800.207 357C800.874 361.667 800.04 366.333 797.707 371C795.374 375.333 792.374 377.5 788.707 377.5ZM776.207 102.5C768.874 102.5 763.374 99.6667 759.707 94C756.374 88.3333 754.707 81.3333 754.707 73C754.707 69.3333 754.874 66.6667 755.207 65C754.874 59.6667 757.874 57 764.207 57C768.874 57 773.54 58.1667 778.207 60.5C783.207 62.5 784.707 64 782.707 65C786.04 73.6667 787.707 80.5 787.707 85.5C787.707 89.8333 786.707 93.3333 784.707 96C782.707 98.3333 779.874 100.5 776.207 102.5Z" fill="#D2AA76"/>
<path d="M872.551 373.5C865.217 337.167 859.551 294.167 855.551 244.5C851.884 194.5 850.051 146.167 850.051 99.5C850.051 76.1667 850.551 55.5 851.551 37.5C851.551 33.1667 854.884 31 861.551 31C866.884 31 870.217 32.3333 871.551 35C873.217 37.6667 874.051 41.8333 874.051 47.5C874.051 101.5 875.051 147.667 877.051 186C879.051 224 881.717 265 885.051 309C887.051 337.333 888.384 356.5 889.051 366.5C889.384 371.833 886.551 374.5 880.551 374.5C878.551 374.5 875.884 374.167 872.551 373.5Z" fill="#D2AA76"/>
<path d="M1066.04 613.5C1043.37 613.5 1023.04 608.667 1005.04 599C987.368 589.333 973.202 578.167 962.535 565.5C951.868 552.833 945.868 542.5 944.535 534.5C943.202 527.167 944.868 521.5 949.535 517.5C954.535 513.5 960.702 511.833 968.035 512.5C978.368 537.167 990.702 556.167 1005.04 569.5C1019.37 582.833 1039.87 589.833 1066.54 590.5C1085.2 590.833 1100.04 578.833 1111.04 554.5C1122.37 530.5 1130.37 501 1135.04 466C1139.7 431.333 1142.04 397.167 1142.04 363.5C1142.04 346.167 1141.54 332 1140.54 321C1115.2 352 1082.87 367.5 1043.54 367.5C1009.54 367.5 983.368 351.333 965.035 319C947.035 286.667 935.368 250.167 930.035 209.5C929.368 205.5 929.035 199.833 929.035 192.5C929.035 171.5 935.868 161 949.535 161C950.868 161 952.702 169.333 955.035 186C958.702 212.333 963.202 236 968.535 257C973.868 278 982.702 297.167 995.035 314.5C1007.7 331.5 1024.37 340 1045.04 340C1061.37 340 1078.04 334.667 1095.04 324C1112.37 313 1124.87 300.833 1132.54 287.5C1132.54 262.167 1129.2 239.5 1122.54 219.5C1116.2 199.167 1112.87 188.333 1112.54 187C1111.87 179.667 1111.54 175 1111.54 173C1111.54 166.333 1112.54 161.5 1114.54 158.5C1116.87 155.5 1120.2 154 1124.54 154C1129.2 154 1134.54 163.5 1140.54 182.5C1146.54 201.5 1151.87 226.333 1156.54 257C1161.2 287.667 1164.37 319.667 1166.04 353C1166.7 370.333 1167.04 383.167 1167.04 391.5C1167.04 455.5 1159.04 508.5 1143.04 550.5C1127.37 592.5 1101.7 613.5 1066.04 613.5Z" fill="#D2AA76"/>
<path d="M378.742 131.37C389.55 125.727 400.302 122.673 410.998 122.209C421.563 121.813 431.169 124.025 439.817 128.846C448.465 133.666 455.291 140.868 460.294 150.452C463.692 156.96 465.379 163.683 465.355 170.622C465.332 177.56 463.419 184.054 459.617 190.104C455.877 196.273 450.296 201.295 442.873 205.17C428.808 212.512 415.163 216.85 401.939 218.183C388.646 219.702 376.839 218.036 366.518 213.186C356.067 208.403 348.092 200.747 342.595 190.216C338.95 183.235 338.758 175.883 342.017 168.158C345.146 160.502 350.226 153.408 357.256 146.877C364.157 140.414 371.319 135.245 378.742 131.37Z" fill="#D2AA76"/>
<path d="M294.63 65.4604C300.849 55.7654 308.031 48.0892 316.175 42.4317C324.244 36.891 332.581 33.8305 341.186 33.2501C349.791 32.6698 357.903 34.8237 365.523 39.7118C370.697 43.0309 374.624 47.3634 377.302 52.7091C379.981 58.0548 381.017 63.9954 380.41 70.5306C379.897 77.1263 377.505 83.7531 373.234 90.4112C365.141 103.026 356.208 113.123 346.433 120.702C336.677 128.459 326.84 133.03 316.921 134.416C306.927 135.919 297.744 133.985 289.372 128.614C283.821 125.054 280.813 119.497 280.347 111.944C279.806 104.507 281.002 96.536 283.936 88.0305C286.794 79.6418 290.359 72.1185 294.63 65.4604Z" fill="#D2AA76"/>
<path d="M245.975 65.9865C247.851 75.0346 247.82 83.5114 245.883 91.4172C243.923 99.2139 240.235 105.777 234.819 111.107C229.402 116.437 222.61 119.948 214.441 121.642C208.894 122.792 203.553 122.649 198.417 121.212C193.28 119.776 188.876 117.051 185.204 113.037C181.431 109.044 178.9 103.94 177.612 97.7266C175.171 85.9533 174.867 75.1013 176.7 65.1706C178.409 55.1518 182.162 46.8698 187.957 40.3244C193.73 33.67 201.104 29.4123 210.08 27.5514C216.03 26.3178 221.519 27.681 226.547 31.6412C231.553 35.4924 235.726 40.6532 239.066 47.1238C242.384 53.4852 244.686 59.7728 245.975 65.9865Z" fill="#D2AA76"/>
<path d="M393.634 246.208C402.926 247.897 410.946 251.18 417.693 256.056C424.328 260.912 429.132 266.937 432.103 274.133C435.075 281.328 435.795 289.134 434.266 297.551C433.227 303.266 431.041 308.289 427.709 312.621C424.377 316.953 420.105 320.095 414.893 322.046C409.662 324.1 403.855 324.548 397.474 323.388C385.382 321.19 374.983 317.314 366.278 311.76C357.441 306.289 351.034 299.543 347.056 291.52C342.967 283.477 341.762 274.832 343.443 265.584C344.558 259.454 347.956 254.758 353.637 251.497C359.207 248.216 365.698 246.229 373.111 245.537C380.411 244.824 387.252 245.048 393.634 246.208Z" fill="#D2AA76"/>
<path d="M2424.53 74.5179C2432.65 68.3952 2440.91 64.1827 2449.3 61.8804C2457.6 59.6518 2465.32 59.5127 2472.47 61.463C2479.62 63.4134 2485.5 67.4455 2490.1 73.5593C2493.23 77.7107 2495.03 82.3339 2495.49 87.4288C2495.96 92.5238 2494.9 97.6394 2492.33 102.776C2489.81 107.987 2485.76 112.695 2480.18 116.9C2469.61 124.867 2459.16 130.552 2448.84 133.956C2438.47 137.509 2429.05 138.453 2420.58 136.787C2412.02 135.195 2405.2 131.041 2400.14 124.323C2396.78 119.87 2396.12 114.511 2398.15 108.246C2400.08 102.054 2403.59 95.9181 2408.68 89.8366C2413.66 83.8289 2418.95 78.7227 2424.53 74.5179Z" fill="#006080"/>
<path d="M2339.79 47.8324C2341.96 38.7985 2345.4 31.0481 2350.11 24.5814C2354.79 18.2235 2360.33 13.6846 2366.74 10.9648C2373.14 8.24492 2379.89 7.73896 2386.99 9.44692C2391.82 10.6066 2395.95 12.8688 2399.41 16.2332C2402.87 19.5977 2405.23 23.8503 2406.5 28.9911C2407.85 34.1529 2407.78 39.8358 2406.29 46.0399C2403.46 57.7949 2399.33 67.8537 2393.88 76.2164C2388.5 84.7089 2382.22 90.7961 2375.03 94.4779C2367.81 98.2685 2360.3 99.2255 2352.5 97.3489C2347.32 96.1048 2343.56 92.6665 2341.21 87.034C2338.83 81.5103 2337.63 75.1196 2337.61 67.8618C2337.57 60.7129 2338.29 54.0365 2339.79 47.8324Z" fill="#006080"/>
<path d="M2308.88 63.6841C2311.33 71.2619 2312.09 78.5274 2311.17 85.4806C2310.21 92.3424 2307.66 98.308 2303.52 103.377C2299.37 108.447 2293.88 112.086 2287.04 114.295C2282.39 115.796 2277.8 116.169 2273.27 115.415C2268.73 114.661 2264.71 112.735 2261.19 109.637C2257.58 106.567 2254.94 102.429 2253.26 97.2251C2250.08 87.3648 2248.81 78.0955 2249.46 69.4171C2249.99 60.6747 2252.44 53.2306 2256.79 47.0846C2261.12 40.8474 2267.05 36.5149 2274.56 34.0872C2279.55 32.4778 2284.38 33.1362 2289.05 36.0622C2293.7 38.897 2297.75 42.9311 2301.21 48.1647C2304.65 53.3069 2307.2 58.4801 2308.88 63.6841Z" fill="#006080"/>
<path d="M2455.37 158.236C2463.08 158.057 2470.04 159.364 2476.24 162.154C2482.35 164.947 2487.18 168.978 2490.75 174.246C2494.31 179.514 2496.17 185.641 2496.33 192.627C2496.44 197.37 2495.52 201.749 2493.57 205.764C2491.61 209.779 2488.71 212.995 2484.86 215.414C2481.02 217.919 2476.44 219.233 2471.15 219.355C2461.11 219.587 2452.15 218.198 2444.27 215.187C2436.3 212.264 2430.06 207.921 2425.56 202.157C2420.97 196.395 2418.58 189.676 2418.4 182C2418.28 176.912 2420.23 172.595 2424.24 169.051C2428.16 165.509 2433.02 162.851 2438.84 161.077C2444.56 159.305 2450.07 158.358 2455.37 158.236Z" fill="#006080"/>
<path d="M169.166 365.176C167.971 362.162 167.326 359.802 167.23 358.096C167.285 356.039 168.568 354.513 171.077 353.518C173.336 352.623 176.044 352.13 179.203 352.041C182.612 351.851 185.946 351.838 189.204 351.999C197.425 352.228 204.595 352.001 210.713 351.32C217.082 350.539 224.532 348.457 233.064 345.074C264.179 332.737 284.577 316.074 294.259 295.086C304.191 273.998 304.427 251.522 294.966 227.659C286.5 206.308 273.058 189.982 254.639 178.681C236.121 167.129 215.735 160.388 193.482 158.456C171.479 156.425 150.593 158.31 130.826 164.113L215.472 314.987C217.165 319.257 217.932 323.023 217.773 326.283C217.865 329.444 215.904 331.821 211.889 333.413C211.084 334.313 206.513 328.277 198.176 315.305C189.838 302.333 177.858 283.102 162.235 257.612C144.066 227.9 130.438 205.979 121.352 191.851C112.166 177.471 106.246 169.499 103.593 167.934C82.7664 176.192 66.1513 184.088 53.7484 191.621C41.246 198.904 32.0295 205.32 26.099 210.868C20.1685 216.417 17.8306 218.943 19.0852 218.445C17.6314 218.44 16.4544 218.035 15.5541 217.229C14.5543 216.172 13.4808 214.563 12.3335 212.402C10.9353 210.34 9.91153 208.857 9.26222 207.952C6.87197 201.923 10.3747 195.011 19.7703 187.217C29.1659 179.422 39.5116 172.558 50.8073 166.626C62.3539 160.595 70.1347 156.783 74.1495 155.191C100.999 144.546 131.169 138.979 164.659 138.491C198.049 137.751 228.839 144.001 257.028 157.242C285.217 170.482 305.038 191.545 316.492 220.432C325.057 242.035 326.982 262.636 322.267 282.237C317.453 301.586 307.807 318.637 293.329 333.388C279.103 348.04 262.078 359.295 242.254 367.155C226.195 373.522 210.77 376.731 195.981 376.781C181.192 376.832 172.253 372.963 169.166 365.176Z" fill="#D2AA76"/>
<path d="M1195 343C1188.67 317.667 1183.83 292.167 1180.5 266.5C1177.17 240.5 1174.17 197.833 1171.5 138.5C1171.5 134.5 1172.83 131 1175.5 128C1178.5 125 1181.83 123.5 1185.5 123.5H1190C1191.67 134.5 1192.83 152.167 1193.5 176.5C1193.5 179.167 1193.83 188.167 1194.5 203.5C1195.17 218.5 1196.83 232.667 1199.5 246C1238.17 242.333 1269 234.833 1292 223.5C1315.33 212.167 1327 196 1327 175C1327 148.667 1315.33 127.167 1292 110.5C1268.67 93.8333 1233.5 85.5 1186.5 85.5C1166.83 85.5 1150.17 89.1667 1136.5 96.5C1134.17 97.5 1132.5 99.6667 1131.5 103C1130.5 106 1129.67 110.333 1129 116C1128.33 122 1127.5 126.5 1126.5 129.5C1125.5 132.5 1123.67 134 1121 134C1118 134 1116 131.833 1115 127.5C1114.33 122.833 1114 112.333 1114 96C1114 86.6667 1120.33 79.3333 1133 74C1145.67 68.6667 1162 66 1182 66C1240.33 66 1283.67 75.1667 1312 93.5C1340.33 111.833 1354.5 140 1354.5 178C1354.5 198.333 1346.33 215.333 1330 229C1313.67 242.667 1293.83 252.833 1270.5 259.5C1247.17 265.833 1224.83 269 1203.5 269C1204.17 273 1204.83 276.667 1205.5 280C1206.17 283.333 1206.67 286.167 1207 288.5C1211.67 311.167 1214 328.667 1214 341C1214 348.333 1213 354.167 1211 358.5C1209.33 362.833 1205.5 364.333 1199.5 363L1195 343Z" fill="#006080"/>
<path d="M1511.78 363C1477.11 363 1446.94 357 1421.28 345C1395.94 332.667 1383.28 311.167 1383.28 280.5C1383.28 269.5 1386.61 258.833 1393.28 248.5C1399.94 238.167 1409.78 229.833 1422.78 223.5C1435.78 216.833 1451.61 213.5 1470.28 213.5C1484.61 213.5 1496.78 214.167 1506.78 215.5C1516.78 216.833 1528.28 220.5 1541.28 226.5C1554.28 232.5 1567.78 242 1581.78 255C1576.44 232 1568.44 211.833 1557.78 194.5C1547.11 177.167 1535.11 163.833 1521.78 154.5C1508.78 144.833 1495.94 140 1483.28 140C1477.28 140 1471.61 141.167 1466.28 143.5C1461.28 145.5 1455.11 148.5 1447.78 152.5C1439.44 157.833 1433.28 160.5 1429.28 160.5C1427.61 160.5 1426.11 160 1424.78 159C1423.78 157.667 1423.28 156.167 1423.28 154.5C1423.28 141.167 1429.11 130.833 1440.78 123.5C1452.78 116.167 1467.28 112.833 1484.28 113.5C1507.61 114.833 1528.94 124.833 1548.28 143.5C1567.61 161.833 1582.78 184.667 1593.78 212C1605.11 239.333 1610.78 266.167 1610.78 292.5C1610.78 296.833 1610.44 303 1609.78 311L1593.78 310C1581.11 284.333 1564.78 266.167 1544.78 255.5C1525.11 244.5 1505.28 239 1485.28 239C1459.61 239 1441.28 242.833 1430.28 250.5C1419.28 258.167 1413.78 269.333 1413.78 284C1413.78 299.333 1421.44 311.667 1436.78 321C1452.11 330.333 1471.78 335 1495.78 335C1509.11 335 1519.78 334.333 1527.78 333C1535.78 331.333 1544.11 329.167 1552.78 326.5C1559.78 324.167 1565.94 322.5 1571.28 321.5C1576.61 320.5 1583.44 320 1591.78 320C1601.11 320 1606.94 320.667 1609.28 322C1611.94 323.333 1613.28 326.333 1613.28 331C1613.28 334.333 1606.44 338.5 1592.78 343.5C1579.11 348.5 1563.78 353 1546.78 357C1529.78 361 1518.11 363 1511.78 363Z" fill="#006080"/>
<path d="M1875.3 360.5C1856.63 360.5 1841.46 357 1829.8 350C1818.46 342.667 1810.46 331.333 1805.8 316C1795.8 333.333 1784.3 346.333 1771.3 355C1758.3 363.333 1744.3 367.5 1729.3 367.5C1703.3 367.5 1683.3 358.167 1669.3 339.5C1655.3 320.833 1648.3 290.667 1648.3 249C1648.3 229.333 1650.3 212.667 1654.3 199C1658.63 185.333 1665.8 172.833 1675.8 161.5C1680.46 163.167 1683.3 165.5 1684.3 168.5C1685.63 171.167 1686.3 175.167 1686.3 180.5C1686.3 185.833 1685.63 191.167 1684.3 196.5C1683.3 201.833 1682.63 205 1682.3 206C1679.96 216 1678.13 224.833 1676.8 232.5C1675.8 239.833 1675.3 249 1675.3 260C1675.3 284 1679.8 303.667 1688.8 319C1698.13 334 1711.46 341.5 1728.8 341.5C1748.46 341.5 1763.8 335.167 1774.8 322.5C1786.13 309.5 1791.8 293.333 1791.8 274L1788.3 223C1788.3 221 1789.63 219 1792.3 217C1795.3 215 1798.63 214 1802.3 214C1806.96 214 1810.13 217.167 1811.8 223.5C1813.46 229.833 1814.96 239.833 1816.3 253.5C1818.3 270.5 1820.46 284.5 1822.8 295.5C1825.46 306.167 1830.46 315.667 1837.8 324C1845.13 332 1855.8 336 1869.8 336C1886.8 336 1899.13 331.333 1906.8 322C1914.46 312.333 1918.3 299.833 1918.3 284.5C1918.3 270.833 1915.63 256.5 1910.3 241.5C1905.3 226.167 1899.13 213.667 1891.8 204C1891.46 201 1892.96 198.5 1896.3 196.5C1899.96 194.5 1903.63 194 1907.3 195C1913.3 196.333 1918.8 201.667 1923.8 211C1929.13 220.333 1933.3 232 1936.3 246C1939.63 260 1941.3 274 1941.3 288C1941.3 309 1935.96 326.333 1925.3 340C1914.96 353.667 1898.3 360.5 1875.3 360.5Z" fill="#006080"/>
<path d="M1983.92 304C1988.59 300.333 1993.09 298.5 1997.42 298.5C2001.42 298.5 2005.26 299.667 2008.92 302C2012.92 304.333 2016.92 307.333 2020.92 311C2024.92 314.333 2028.09 316.833 2030.42 318.5C2038.09 324.5 2048.59 329.167 2061.92 332.5C2075.26 335.833 2089.42 337.5 2104.42 337.5C2121.42 337.5 2136.59 334.333 2149.92 328C2163.59 321.333 2170.42 312.5 2170.42 301.5C2170.42 291.5 2166.76 283.667 2159.42 278C2152.09 272 2143.26 267.667 2132.92 265C2122.59 262.333 2108.92 259.833 2091.92 257.5C2068.92 254.833 2050.59 251.5 2036.92 247.5C2023.59 243.5 2012.92 237 2004.92 228C1996.92 218.667 1992.92 205.667 1992.92 189C1992.92 171 2001.42 157.667 2018.42 149C2035.42 140 2054.92 135.5 2076.92 135.5C2096.92 135.5 2113.92 139.833 2127.92 148.5C2142.26 156.833 2149.59 168.833 2149.92 184.5C2150.59 193.5 2149.26 200.667 2145.92 206C2142.59 211 2138.59 213.5 2133.92 213.5C2131.26 213.5 2128.92 212.5 2126.92 210.5C2125.26 208.5 2124.42 205.833 2124.42 202.5C2124.42 197.167 2126.26 191.333 2129.92 185C2128.26 177 2122.76 171 2113.42 167C2104.42 163 2093.59 161 2080.92 161C2062.26 161 2047.42 164.5 2036.42 171.5C2025.42 178.167 2019.92 186.167 2019.92 195.5C2019.92 205.5 2023.92 213.167 2031.92 218.5C2039.92 223.833 2049.59 227.667 2060.92 230C2072.59 232 2089.09 234 2110.42 236C2128.09 238.333 2142.42 241.167 2153.42 244.5C2164.76 247.833 2174.26 254.333 2181.92 264C2189.59 273.333 2193.42 286.833 2193.42 304.5C2193.42 322.833 2184.92 337.333 2167.92 348C2150.92 358.333 2130.59 363.5 2106.92 363.5C2076.59 363.5 2049.42 358.333 2025.42 348C2001.76 337.667 1987.92 323 1983.92 304Z" fill="#006080"/>
<path d="M2315.69 358.514C2294.85 353.952 2276.53 345.677 2260.73 333.688C2244.93 321.699 2233.45 307.075 2226.31 289.815C2219.17 272.556 2217.74 254.158 2222.01 234.62C2226.79 212.803 2235.31 193.342 2247.59 176.238C2259.93 158.808 2275.17 146.105 2293.29 138.129C2311.81 129.898 2331.66 128.099 2352.82 132.732C2374.97 137.578 2390.17 148.412 2398.43 165.234C2406.76 181.73 2408.25 200.653 2402.89 222.002C2398.69 241.214 2387.83 254.192 2370.32 260.937C2353.13 267.753 2332.81 268.595 2309.37 263.464C2305.79 262.68 2300.48 261.178 2293.46 258.959C2282.02 255.091 2274.11 251.483 2269.73 248.134C2265.34 244.786 2263.9 239.692 2265.39 232.854C2265.89 230.575 2266.9 229.089 2268.42 228.398C2270.01 227.38 2272.75 227.299 2276.66 228.154C2280.89 229.081 2288.17 231.697 2298.49 236.002C2308.48 240.237 2317.55 243.245 2325.69 245.027C2355.64 251.583 2373.47 241.837 2379.17 215.787C2382.6 200.157 2382.37 187.141 2378.51 176.741C2374.97 166.412 2366.03 159.679 2351.71 156.544C2336.08 153.123 2321.15 154.291 2306.92 160.049C2292.77 165.482 2280.81 174.125 2271.05 185.979C2261.61 197.904 2255.26 211.356 2251.98 226.335C2246.35 252.059 2248.88 274.793 2259.57 294.536C2270.34 313.953 2290.7 326.94 2320.65 333.496C2324.24 334.28 2330.33 335.273 2338.94 336.475C2342.59 336.933 2347.2 336.919 2352.77 336.431C2358.34 335.943 2362.33 335.623 2364.75 335.47C2379.82 333.651 2390.61 333.453 2397.13 334.879C2402.01 335.948 2405.47 338.07 2407.51 341.245C2396.66 351.837 2382.45 358.282 2364.89 360.58C2347.72 362.623 2331.32 361.935 2315.69 358.514Z" fill="#006080"/>
</svg>
