<?xml version="1.0" standalone="no"?>
<!DOCTYPE svg PUBLIC "-//W3C//DTD SVG 20010904//EN"
 "http://www.w3.org/TR/2001/REC-SVG-20010904/DTD/svg10.dtd">
<svg version="1.0" xmlns="http://www.w3.org/2000/svg"
 width="960.000000pt" height="960.000000pt" viewBox="0 0 960.000000 960.000000"
 preserveAspectRatio="xMidYMid meet">
<metadata>
Created by potrace 1.14, written by Peter Selinger 2001-2017
</metadata>
<g transform="translate(0.000000,960.000000) scale(0.100000,-0.100000)"
fill="#000000" stroke="none">
<path d="M4228 8665 c-2 -2 -19 -7 -38 -10 -142 -24 -314 -121 -416 -235 -52
-58 -106 -130 -97 -130 4 0 3 -4 -3 -8 -21 -13 -88 -161 -109 -242 -12 -45
-26 -104 -30 -133 -3 -17 -8 -48 -12 -67 -8 -47 -8 -353 0 -410 27 -187 46
-259 89 -345 32 -62 89 -140 121 -163 10 -8 29 -25 42 -38 13 -13 27 -24 30
-24 3 0 22 -10 43 -23 101 -63 283 -89 430 -61 297 57 520 250 616 532 24 68
42 149 38 166 -2 4 1 13 6 20 10 13 8 252 -3 311 -21 122 -56 249 -89 320 -13
28 -27 61 -31 75 -4 14 -16 37 -26 51 -10 14 -16 29 -12 33 3 3 1 6 -5 6 -7 0
-12 6 -12 14 0 8 -6 21 -13 28 -8 7 -16 19 -18 25 -10 27 -116 151 -161 188
-27 22 -55 45 -61 50 -16 14 -96 52 -126 60 -28 9 -147 16 -153 10z"/>
<path d="M6797 8544 c-1 -2 -20 -5 -42 -8 -98 -11 -315 -87 -315 -109 0 -4 -4
-6 -9 -3 -5 3 -14 -1 -21 -9 -7 -8 -16 -15 -21 -15 -20 0 -138 -89 -224 -169
-89 -82 -275 -310 -275 -337 0 -4 -6 -15 -14 -23 -45 -50 -205 -411 -222 -500
-3 -14 -7 -28 -9 -31 -2 -4 -7 -20 -9 -36 -3 -16 -8 -40 -11 -54 -19 -91 -25
-247 -13 -325 23 -153 106 -260 258 -332 74 -35 98 -44 155 -59 102 -25 267
-25 390 1 103 21 338 125 399 177 6 4 48 35 93 68 83 61 293 263 348 335 17
21 38 48 48 59 10 12 40 53 67 91 27 39 54 75 58 80 21 26 93 152 104 182 7
18 15 33 18 33 4 0 7 6 8 13 1 6 12 51 25 99 58 211 16 441 -108 596 -45 56
-196 182 -218 182 -4 0 -34 13 -69 29 -111 50 -175 64 -306 66 -45 1 -83 0
-85 -1z"/>
<path d="M8140 6759 c-25 -3 -63 -9 -85 -13 -22 -3 -51 -8 -65 -11 -14 -3 -35
-7 -47 -9 -74 -15 -333 -117 -364 -142 -8 -8 -20 -14 -26 -14 -20 0 -250 -159
-331 -230 -123 -106 -192 -179 -259 -274 -12 -17 -26 -35 -31 -41 -14 -18 -99
-189 -111 -226 -39 -120 -32 -253 19 -364 13 -28 24 -52 24 -55 5 -23 115
-167 171 -224 77 -77 88 -86 156 -132 55 -38 236 -124 269 -130 3 0 23 -6 46
-12 47 -14 130 -30 189 -38 84 -11 379 -4 402 9 5 3 35 8 68 12 32 3 62 8 65
10 4 2 19 6 35 9 66 12 227 62 315 98 52 21 99 39 104 41 25 6 223 110 273
144 73 48 240 213 216 213 -3 0 1 8 10 18 40 44 100 192 114 282 8 52 8 223
-1 260 -3 14 -8 34 -10 45 -16 77 -93 258 -126 296 -8 9 -26 35 -39 57 -32 55
-133 159 -211 219 -62 48 -205 130 -239 137 -9 2 -25 6 -36 10 -53 20 -76 26
-150 42 -86 17 -271 25 -345 13z"/>
<path d="M3264 6441 c-2 -2 -59 -5 -126 -7 -141 -4 -307 -15 -413 -29 -16 -2
-57 -6 -90 -10 -57 -5 -133 -17 -200 -30 -16 -4 -37 -7 -45 -7 -8 0 -31 -4
-51 -9 -19 -5 -51 -11 -70 -13 -19 -3 -34 -5 -34 -6 0 -2 -17 -6 -60 -14 -67
-13 -313 -78 -350 -92 -22 -9 -42 -16 -45 -15 -9 1 -85 -22 -95 -29 -9 -6 -48
-18 -81 -25 -6 -2 -27 -10 -45 -18 -19 -9 -59 -26 -89 -37 -30 -12 -138 -63
-240 -114 -167 -84 -213 -108 -357 -187 -24 -12 -43 -26 -43 -31 0 -4 -6 -8
-12 -8 -13 0 -163 -94 -186 -117 -7 -7 -17 -13 -22 -13 -5 0 -15 -6 -22 -12
-7 -7 -49 -40 -93 -73 -82 -62 -97 -75 -178 -152 -54 -51 -130 -157 -120 -167
4 -3 2 -6 -4 -6 -5 0 -10 -6 -11 -12 -1 -7 -4 -32 -8 -55 -5 -38 9 -110 25
-123 7 -6 50 -70 80 -123 21 -35 50 -58 77 -63 7 -1 57 42 111 95 55 54 121
113 146 131 26 18 47 37 47 42 0 4 6 8 14 8 8 0 16 3 18 8 2 4 30 25 63 47 33
22 62 43 65 46 3 3 34 23 70 45 36 21 67 42 68 47 2 4 9 7 14 7 6 0 55 27 109
60 53 33 102 60 107 60 6 0 12 4 14 8 2 7 121 67 441 224 31 15 57 25 57 22 0
-4 6 -2 13 4 6 5 80 38 162 72 83 33 160 66 173 72 18 10 26 8 49 -13 15 -13
33 -32 41 -41 7 -9 18 -23 25 -30 6 -8 22 -27 34 -44 96 -136 169 -245 228
-339 38 -60 73 -111 77 -113 5 -2 8 -8 8 -14 0 -5 15 -30 32 -56 18 -26 32
-50 31 -53 -1 -4 7 -15 17 -24 11 -10 20 -22 20 -27 0 -4 24 -45 54 -91 29
-45 71 -111 93 -147 21 -36 106 -173 187 -304 82 -132 156 -252 165 -267 9
-16 72 -119 141 -230 164 -264 168 -271 176 -291 3 -10 10 -18 15 -18 5 0 9
-4 9 -9 0 -9 77 -137 145 -241 50 -77 201 -321 210 -340 5 -11 13 -20 17 -20
5 0 8 -4 8 -9 0 -5 18 -37 40 -70 22 -33 40 -63 40 -66 0 -4 6 -12 13 -20 6
-7 26 -36 42 -64 17 -28 33 -51 38 -51 4 0 7 -5 7 -11 0 -12 116 -183 167
-246 19 -23 40 -44 48 -47 34 -13 123 62 127 107 8 123 -15 212 -93 347 -17
30 -36 61 -41 68 -6 6 -7 12 -3 12 5 0 1 8 -7 18 -8 9 -44 69 -79 132 -34 63
-73 133 -86 155 -13 22 -31 56 -41 75 -9 19 -20 37 -24 38 -5 2 -8 9 -8 17 0
7 -7 18 -15 25 -8 7 -12 16 -9 21 3 5 0 9 -5 9 -6 0 -11 4 -11 10 0 5 -13 31
-28 57 -16 26 -46 80 -67 118 -21 39 -49 88 -61 110 -13 22 -31 56 -42 75 -11
20 -81 146 -157 280 -76 134 -146 260 -157 280 -19 35 -35 63 -97 174 -18 32
-46 81 -62 108 -16 27 -29 50 -29 52 0 2 -29 54 -65 116 -36 62 -65 114 -65
117 0 2 -38 70 -85 152 -47 81 -85 153 -85 160 0 6 -4 11 -9 11 -5 0 -11 8
-15 18 -3 9 -19 40 -35 67 -16 28 -37 64 -45 80 -8 17 -31 57 -50 90 -20 33
-39 66 -43 74 -3 8 -31 57 -60 109 -29 51 -53 95 -53 97 0 7 104 34 112 29 4
-3 8 0 8 7 0 7 3 10 6 7 3 -3 29 0 57 7 29 8 66 16 82 19 17 3 41 8 55 11 14
3 39 7 56 9 17 2 49 7 70 10 203 34 626 40 859 12 67 -9 115 -15 145 -21 14
-2 43 -7 65 -11 59 -9 73 -12 145 -29 146 -35 388 -114 418 -138 6 -5 12 -7
12 -4 0 3 27 -7 59 -24 33 -16 63 -29 66 -29 4 0 20 -9 36 -21 16 -11 29 -18
29 -15 0 13 281 -159 288 -176 2 -4 9 -8 15 -8 7 0 30 -16 51 -35 22 -19 43
-35 47 -35 8 0 213 -200 255 -250 16 -19 41 -51 54 -70 14 -19 27 -37 30 -40
11 -11 89 -128 110 -165 64 -113 175 -355 163 -355 -3 0 -1 -6 4 -12 10 -13
50 -126 57 -164 3 -10 10 -41 16 -69 6 -27 14 -61 16 -75 3 -14 7 -32 9 -40
25 -86 25 -415 0 -530 -3 -14 -8 -38 -11 -55 -18 -103 -69 -249 -137 -395 -22
-48 -107 -182 -154 -243 -82 -107 -312 -327 -342 -327 -6 0 -11 -4 -11 -9 0
-15 -277 -193 -324 -207 -11 -4 -23 -10 -26 -14 -12 -18 -330 -158 -475 -208
-75 -26 -244 -68 -310 -77 -89 -12 -314 -17 -550 -13 -58 1 -156 -6 -160 -12
-2 -3 -18 -5 -34 -4 -17 1 -34 -2 -37 -7 -3 -5 -12 -9 -20 -9 -28 0 -76 -55
-76 -86 1 -53 33 -163 54 -188 4 -6 17 -23 28 -37 48 -65 187 -128 315 -145
76 -9 277 -11 303 -2 13 5 22 4 22 -3 0 -6 5 -7 11 -3 6 3 27 8 47 10 57 5
125 14 142 19 8 2 33 6 55 10 22 3 69 13 105 21 36 9 72 17 80 19 8 2 44 13
80 24 36 11 70 21 75 22 11 2 127 44 160 58 11 5 58 25 105 45 47 20 89 36 94
35 5 0 12 3 15 8 3 5 42 26 86 48 81 39 93 47 220 126 146 91 333 236 433 336
23 24 47 43 52 43 6 0 10 3 10 8 0 4 26 34 58 67 47 50 110 124 155 180 72 92
197 295 246 400 60 129 130 327 147 415 3 14 7 32 9 40 4 15 13 60 21 110 22
137 22 428 0 545 -2 11 -9 52 -16 90 -14 76 -65 272 -88 335 -3 8 -6 17 -7 20
-1 3 -7 18 -13 33 -7 16 -12 31 -12 33 0 3 -8 24 -19 47 -20 47 -34 79 -35 87
-3 10 -94 186 -115 220 -11 19 -26 46 -33 60 -7 14 -15 27 -19 30 -3 3 -25 34
-49 70 -95 141 -262 326 -395 436 -33 27 -62 52 -65 55 -3 3 -41 31 -85 61
-278 193 -543 313 -1005 453 -25 8 -56 16 -70 19 -14 3 -56 13 -95 22 -38 8
-79 17 -90 20 -11 2 -33 6 -48 10 -16 3 -41 8 -55 10 -15 2 -38 6 -52 8 -14 3
-45 7 -70 11 -25 3 -56 8 -70 10 -101 14 -303 30 -392 30 -43 0 -78 2 -78 5 0
7 -147 3 -165 -4 -8 -3 -15 -2 -15 2 0 7 -49 10 -56 3z"/>
<path d="M7487 4304 c-1 -1 -27 -5 -57 -9 -72 -9 -135 -21 -135 -25 0 -1 -7
-3 -15 -5 -34 -7 -118 -39 -163 -62 -54 -27 -147 -91 -147 -102 0 -3 -11 -18
-24 -32 -26 -29 -55 -79 -63 -112 -36 -153 -37 -289 -2 -422 6 -22 11 -42 12
-45 0 -3 12 -32 27 -66 52 -114 135 -231 215 -303 16 -14 39 -35 51 -46 12
-11 28 -24 36 -30 198 -136 360 -212 568 -266 101 -27 109 -28 155 -37 49 -8
230 -8 265 1 14 3 36 8 48 11 60 13 176 82 237 141 36 34 65 67 65 73 0 7 4
12 8 12 9 0 71 120 91 175 26 71 34 132 35 275 1 76 -4 145 -12 175 -18 63
-51 151 -73 191 -34 62 -44 79 -49 84 -3 3 -17 21 -31 40 -38 51 -96 107 -159
154 -30 22 -57 43 -60 46 -23 25 -253 126 -310 136 -14 3 -38 9 -55 14 -35 11
-77 18 -122 22 -18 1 -33 5 -33 8 0 4 -297 9 -303 4z"/>
</g>
</svg>
